<?xml version="1.0" encoding="UTF-8"?>
<!DOCTYPE svg PUBLIC "-//W3C//DTD SVG 1.1//EN" "http://www.w3.org/Graphics/SVG/1.1/DTD/svg11.dtd">
<svg xmlns="http://www.w3.org/2000/svg" version="1.1" width="388px" height="312px" style="shape-rendering:geometricPrecision; text-rendering:geometricPrecision; image-rendering:optimizeQuality; fill-rule:evenodd; clip-rule:evenodd" xmlns:xlink="http://www.w3.org/1999/xlink">
<g><path style="opacity:1" fill="#fae6a2" d="M 327.5,123.5 C 325.327,119.126 323.66,114.459 322.5,109.5C 319.402,107.072 317.069,104.072 315.5,100.5C 309.919,95.2151 303.586,91.2151 296.5,88.5C 287.613,86.5595 278.613,85.5595 269.5,85.5C 268.737,84.7321 267.737,84.2321 266.5,84C 262.848,83.5014 259.182,83.3347 255.5,83.5C 246.88,82.3396 238.213,81.6729 229.5,81.5C 226.316,79.5864 222.649,78.9197 218.5,79.5C 200.861,78.1672 183.195,76.8339 165.5,75.5C 163.365,73.631 160.698,72.9644 157.5,73.5C 153.833,73.5 150.167,73.5 146.5,73.5C 146.082,72.7784 145.416,72.2784 144.5,72C 141.854,71.5026 139.187,71.3359 136.5,71.5C 126.515,70.5012 116.515,70.0012 106.5,70C 85.7048,74.6322 72.7048,87.1322 67.5,107.5C 63.8051,68.036 79.4718,39.536 114.5,22C 119.469,20.5397 124.469,19.2064 129.5,18C 175.5,17.3333 221.5,17.3333 267.5,18C 291.555,24.3537 309.555,38.6871 321.5,61C 323.883,66.9821 325.55,73.1487 326.5,79.5C 327.499,94.1515 327.833,108.818 327.5,123.5 Z"/></g>
<g><path style="opacity:1" fill="#c5b0b8" d="M 136.5,71.5 C 139.187,71.3359 141.854,71.5026 144.5,72C 145.416,72.2784 146.082,72.7784 146.5,73.5C 143.813,73.6641 141.146,73.4974 138.5,73C 137.584,72.7216 136.918,72.2216 136.5,71.5 Z"/></g>
<g><path style="opacity:1" fill="#bda2d5" d="M 157.5,73.5 C 160.698,72.9644 163.365,73.631 165.5,75.5C 162.302,76.0356 159.635,75.369 157.5,73.5 Z"/></g>
<g><path style="opacity:1" fill="#9b82f5" d="M 136.5,71.5 C 136.918,72.2216 137.584,72.7216 138.5,73C 141.146,73.4974 143.813,73.6641 146.5,73.5C 150.167,73.5 153.833,73.5 157.5,73.5C 159.635,75.369 162.302,76.0356 165.5,75.5C 183.195,76.8339 200.861,78.1672 218.5,79.5C 218.918,80.2216 219.584,80.7216 220.5,81C 223.482,81.498 226.482,81.6646 229.5,81.5C 238.213,81.6729 246.88,82.3396 255.5,83.5C 256.122,85.4557 257.455,86.789 259.5,87.5C 262.642,85.8813 265.975,85.2146 269.5,85.5C 278.613,85.5595 287.613,86.5595 296.5,88.5C 303.586,91.2151 309.919,95.2151 315.5,100.5C 317.069,104.072 319.402,107.072 322.5,109.5C 323.66,114.459 325.327,119.126 327.5,123.5C 327.5,143.5 327.5,163.5 327.5,183.5C 318.501,155.475 299.167,143.309 269.5,147C 213.448,152.226 157.448,157.893 101.5,164C 83.4345,169.562 72.1011,181.395 67.5,199.5C 67.5,168.833 67.5,138.167 67.5,107.5C 72.7048,87.1322 85.7048,74.6322 106.5,70C 116.515,70.0012 126.515,70.5012 136.5,71.5 Z"/></g>
<g><path style="opacity:1" fill="#c4b7bd" d="M 218.5,79.5 C 222.649,78.9197 226.316,79.5864 229.5,81.5C 226.482,81.6646 223.482,81.498 220.5,81C 219.584,80.7216 218.918,80.2216 218.5,79.5 Z"/></g>
<g><path style="opacity:1" fill="#a991dd" d="M 255.5,83.5 C 259.182,83.3347 262.848,83.5014 266.5,84C 267.737,84.2321 268.737,84.7321 269.5,85.5C 265.975,85.2146 262.642,85.8813 259.5,87.5C 257.455,86.789 256.122,85.4557 255.5,83.5 Z"/></g>
<g><path style="opacity:1" fill="#030304" d="M 327.5,183.5 C 332.356,215.782 322.356,242.282 297.5,263C 285.017,272.162 271.017,277.162 255.5,278C 216.833,278.667 178.167,278.667 139.5,278C 96.9645,272.465 72.6311,248.465 66.5,206C 67.4231,203.959 67.7564,201.792 67.5,199.5C 72.1011,181.395 83.4345,169.562 101.5,164C 157.448,157.893 213.448,152.226 269.5,147C 299.167,143.309 318.501,155.475 327.5,183.5 Z"/></g>
<g><path style="opacity:1" fill="#f8f8f8" d="M 169.5,190.5 C 178.054,189.872 181.221,193.538 179,201.5C 162.319,218.347 145.486,235.014 128.5,251.5C 118.151,241.984 108.318,231.984 99,221.5C 98.6562,214.847 101.823,212.013 108.5,213C 115.317,218.983 121.984,225.149 128.5,231.5C 142.521,218.146 156.188,204.479 169.5,190.5 Z"/></g>
</svg>
